<?xml version="1.0" encoding="UTF-8" standalone="no"?>
<!-- Created with Inkscape (http://www.inkscape.org/) -->

<svg
   xmlns:dc="http://purl.org/dc/elements/1.1/"
   xmlns:cc="http://creativecommons.org/ns#"
   xmlns:rdf="http://www.w3.org/1999/02/22-rdf-syntax-ns#"
   xmlns:svg="http://www.w3.org/2000/svg"
   xmlns="http://www.w3.org/2000/svg"
   xmlns:xlink="http://www.w3.org/1999/xlink"
   xmlns:sodipodi="http://sodipodi.sourceforge.net/DTD/sodipodi-0.dtd"
   xmlns:inkscape="http://www.inkscape.org/namespaces/inkscape"
   width="512"
   height="512"
   id="svg2"
   version="1.1"
   inkscape:version="0.48.2 r9819"
   sodipodi:docname="wsgiauth.svg"
   inkscape:export-filename="/Users/lrees/Desktop/wsgiakismet.png"
   inkscape:export-xdpi="37.604816"
   inkscape:export-ydpi="37.604816">
  <defs
     id="defs4">
    <clipPath
       id="clipPath3193"
       clipPathUnits="userSpaceOnUse">
      <path
         id="path3195"
         d="m 0,141.73 141.73,0 L 141.73,0 0,0 0,141.73 z" />
    </clipPath>
    <linearGradient
       y2="448.3533"
       x2="382.90256"
       y1="448.3533"
       x1="403.62915"
       gradientTransform="matrix(0.7071068,-0.7071068,0.7071068,0.7071068,-126.18386,372.2061)"
       gradientUnits="userSpaceOnUse"
       id="linearGradient3632"
       xlink:href="#linearGradient3634"
       inkscape:collect="always" />
    <linearGradient
       gradientUnits="userSpaceOnUse"
       y2="161.84381"
       x2="212.92615"
       y1="358.30106"
       x1="409.38339"
       id="linearGradient3609"
       xlink:href="#linearGradient4032"
       inkscape:collect="always" />
    <linearGradient
       gradientTransform="matrix(0.7071068,-0.7071068,0.7071068,0.7071068,-126.18386,372.2061)"
       y2="613.94257"
       x2="385.03586"
       y1="63.870872"
       x1="386.3927"
       gradientUnits="userSpaceOnUse"
       id="linearGradient3601"
       xlink:href="#linearGradient3795"
       inkscape:collect="always" />
    <linearGradient
       gradientTransform="matrix(0.7071068,-0.7071068,0.7071068,0.7071068,-126.18386,372.2061)"
       y2="448.3533"
       x2="382.90256"
       y1="448.3533"
       x1="403.62915"
       gradientUnits="userSpaceOnUse"
       id="linearGradient3598"
       xlink:href="#linearGradient3795"
       inkscape:collect="always" />
    <linearGradient
       y2="742.5"
       x2="-886.75739"
       y1="742.5"
       x1="-772.00726"
       gradientTransform="matrix(-0.8403312,-0.8403312,-0.8403312,0.8403312,214.11735,-1075.3821)"
       gradientUnits="userSpaceOnUse"
       id="linearGradient3594"
       xlink:href="#linearGradient4685"
       inkscape:collect="always" />
    <linearGradient
       y2="742.5"
       x2="-886.75739"
       y1="742.5"
       x1="-772.00726"
       gradientTransform="matrix(0,-1.1884077,-1.1884077,0,1264.2287,-782.97012)"
       gradientUnits="userSpaceOnUse"
       id="linearGradient3591"
       xlink:href="#linearGradient4685"
       inkscape:collect="always" />
    <linearGradient
       y2="448.3533"
       x2="382.90256"
       y1="448.3533"
       x1="403.62915"
       gradientUnits="userSpaceOnUse"
       id="linearGradient3589"
       xlink:href="#linearGradient3795"
       inkscape:collect="always" />
    <linearGradient
       y2="358.53836"
       x2="506.83289"
       y1="358.53836"
       x1="267.84595"
       gradientUnits="userSpaceOnUse"
       id="linearGradient3587"
       xlink:href="#linearGradient3795"
       inkscape:collect="always" />
    <linearGradient
       gradientUnits="userSpaceOnUse"
       y2="358.53836"
       x2="506.83289"
       y1="358.53836"
       x1="267.84595"
       id="linearGradient3433"
       xlink:href="#linearGradient3795"
       inkscape:collect="always" />
    <linearGradient
       gradientUnits="userSpaceOnUse"
       y2="448.3533"
       x2="382.90256"
       y1="448.3533"
       x1="403.62915"
       id="linearGradient3431"
       xlink:href="#linearGradient3795"
       inkscape:collect="always" />
    <linearGradient
       y2="742.5"
       x2="-886.75739"
       y1="742.5"
       x1="-772.00726"
       gradientTransform="matrix(0,-1.1884077,-1.1884077,0,1264.2287,-782.97012)"
       gradientUnits="userSpaceOnUse"
       id="linearGradient2359"
       xlink:href="#linearGradient4685"
       inkscape:collect="always" />
    <radialGradient
       r="176.32553"
       fy="318.35864"
       fx="316.84982"
       cy="318.35864"
       cx="316.84982"
       gradientTransform="matrix(0.9705775,0,0,0.8107294,-112.84418,-183.88404)"
       gradientUnits="userSpaceOnUse"
       id="radialGradient6852"
       xlink:href="#linearGradient3795"
       inkscape:collect="always" />
    <linearGradient
       y2="742.5"
       x2="-886.75739"
       y1="742.5"
       x1="-772.00726"
       gradientTransform="matrix(0,-1.0801612,-1.0801612,0,1220.6392,-612.52504)"
       gradientUnits="userSpaceOnUse"
       id="linearGradient6789"
       xlink:href="#linearGradient4685"
       inkscape:collect="always" />
    <linearGradient
       y2="180.64349"
       x2="164.26624"
       y1="710.15875"
       x1="693.78149"
       gradientTransform="matrix(0.7071068,0.7071068,-0.7071068,0.7071068,416.40044,-164.22392)"
       gradientUnits="userSpaceOnUse"
       id="linearGradient5849"
       xlink:href="#linearGradient4552"
       inkscape:collect="always" />
    <linearGradient
       y2="132.67882"
       x2="192.85715"
       y1="-31.362305"
       x1="192.85715"
       gradientTransform="matrix(1.2682759,0,0,1.2682759,160.5585,153.84289)"
       gradientUnits="userSpaceOnUse"
       id="linearGradient5844"
       xlink:href="#linearGradient5304"
       inkscape:collect="always" />
    <linearGradient
       gradientTransform="matrix(0.7071068,0.7071068,-0.7071068,0.7071068,416.40044,-164.22392)"
       gradientUnits="userSpaceOnUse"
       y2="582.01782"
       x2="296.64307"
       y1="309.12817"
       x1="569.53271"
       id="linearGradient5789"
       xlink:href="#linearGradient4552"
       inkscape:collect="always" />
    <linearGradient
       y2="132.67882"
       x2="192.85715"
       y1="-31.362305"
       x1="192.85715"
       gradientTransform="matrix(1.2682759,0,0,1.2682759,160.5585,153.84289)"
       gradientUnits="userSpaceOnUse"
       id="linearGradient5776"
       xlink:href="#linearGradient5304"
       inkscape:collect="always" />
    <linearGradient
       y2="132.67882"
       x2="192.85715"
       y1="-31.362305"
       x1="192.85715"
       gradientTransform="matrix(0.9036324,0,0,0.9036324,232.67248,288.61755)"
       gradientUnits="userSpaceOnUse"
       id="linearGradient5773"
       xlink:href="#linearGradient5304"
       inkscape:collect="always" />
    <linearGradient
       y2="490.64871"
       x2="368.17136"
       y1="736.76624"
       x1="368.17136"
       gradientTransform="matrix(0.9991407,0,0,0.9991407,39.919373,8.9265001)"
       gradientUnits="userSpaceOnUse"
       id="linearGradient5771"
       xlink:href="#linearGradient3795"
       inkscape:collect="always" />
    <linearGradient
       y2="490.64871"
       x2="368.17136"
       y1="736.76624"
       x1="368.17136"
       gradientTransform="matrix(0.9991407,0,0,0.9991407,39.919373,8.9265001)"
       gradientUnits="userSpaceOnUse"
       id="linearGradient5737"
       xlink:href="#linearGradient3795"
       inkscape:collect="always" />
    <linearGradient
       y2="244.351"
       x2="384.66339"
       y1="738.58362"
       x1="384.66339"
       gradientTransform="matrix(0.9991407,0,0,0.9991407,157.09707,90.748856)"
       gradientUnits="userSpaceOnUse"
       id="linearGradient5698"
       xlink:href="#linearGradient3795"
       inkscape:collect="always" />
    <linearGradient
       gradientTransform="matrix(0.9036324,0,0,0.9036324,232.67248,288.61755)"
       gradientUnits="userSpaceOnUse"
       y2="132.67882"
       x2="192.85715"
       y1="-31.362305"
       x1="192.85715"
       id="linearGradient5310"
       xlink:href="#linearGradient5304"
       inkscape:collect="always" />
    <linearGradient
       y2="244.351"
       x2="384.66339"
       y1="738.58362"
       x1="384.66339"
       gradientTransform="matrix(0.9991407,0,0,0.9991407,39.919373,8.9265001)"
       gradientUnits="userSpaceOnUse"
       id="linearGradient5170"
       xlink:href="#linearGradient3795"
       inkscape:collect="always" />
    <linearGradient
       y2="393.41516"
       x2="366.68536"
       y1="264.44321"
       x1="366.68536"
       gradientTransform="matrix(0.9991407,0,0,0.9991407,39.27924,8.9265001)"
       gradientUnits="userSpaceOnUse"
       id="linearGradient5166"
       xlink:href="#linearGradient4685"
       inkscape:collect="always" />
    <linearGradient
       y2="393.41516"
       x2="366.68536"
       y1="264.44321"
       x1="366.68536"
       gradientTransform="matrix(0.7881574,0,0,0.7881574,76.137105,149.01353)"
       gradientUnits="userSpaceOnUse"
       id="linearGradient5163"
       xlink:href="#linearGradient4685"
       inkscape:collect="always" />
    <linearGradient
       y2="244.351"
       x2="384.66339"
       y1="738.58362"
       x1="384.66339"
       gradientTransform="matrix(0.7881574,0,0,0.7881574,76.642065,149.01353)"
       gradientUnits="userSpaceOnUse"
       id="linearGradient5161"
       xlink:href="#linearGradient3795"
       inkscape:collect="always" />
    <linearGradient
       y2="393.41516"
       x2="366.68536"
       y1="264.44321"
       x1="366.68536"
       gradientTransform="matrix(0.7881574,0,0,0.7881574,76.137105,149.01353)"
       gradientUnits="userSpaceOnUse"
       id="linearGradient5045"
       xlink:href="#linearGradient4685"
       inkscape:collect="always" />
    <linearGradient
       y2="244.351"
       x2="384.66339"
       y1="738.58362"
       x1="384.66339"
       gradientTransform="matrix(0.7881574,0,0,0.7881574,76.642065,149.01353)"
       gradientUnits="userSpaceOnUse"
       id="linearGradient5043"
       xlink:href="#linearGradient3795"
       inkscape:collect="always" />
    <linearGradient
       y2="244.351"
       x2="384.66339"
       y1="738.58362"
       x1="384.66339"
       gradientTransform="matrix(0.7881574,0,0,0.7881574,76.642065,149.01353)"
       gradientUnits="userSpaceOnUse"
       id="linearGradient5036"
       xlink:href="#linearGradient3795"
       inkscape:collect="always" />
    <linearGradient
       y2="393.41516"
       x2="366.68536"
       y1="264.44321"
       x1="366.68536"
       gradientTransform="matrix(0.7881574,0,0,0.7881574,76.137105,149.01353)"
       gradientUnits="userSpaceOnUse"
       id="linearGradient5032"
       xlink:href="#linearGradient4685"
       inkscape:collect="always" />
    <linearGradient
       y2="393.41516"
       x2="366.68536"
       y1="264.44321"
       x1="366.68536"
       gradientTransform="matrix(0.5573114,-0.5573114,0.5573114,0.5573114,-100.32562,463.05361)"
       gradientUnits="userSpaceOnUse"
       id="linearGradient5029"
       xlink:href="#linearGradient4685"
       inkscape:collect="always" />
    <linearGradient
       y2="736.78564"
       x2="362.64478"
       y1="242.21985"
       x1="362.64478"
       gradientTransform="matrix(0.5573114,-0.5573114,0.5573114,0.5573114,-99.968559,462.69655)"
       gradientUnits="userSpaceOnUse"
       id="linearGradient5027"
       xlink:href="#linearGradient3795"
       inkscape:collect="always" />
    <linearGradient
       y2="736.78564"
       x2="362.64478"
       y1="242.21985"
       x1="362.64478"
       gradientTransform="matrix(0.5573114,-0.5573114,0.5573114,0.5573114,-99.968559,462.69655)"
       gradientUnits="userSpaceOnUse"
       id="linearGradient5016"
       xlink:href="#linearGradient3795"
       inkscape:collect="always" />
    <linearGradient
       y2="393.41516"
       x2="366.68536"
       y1="264.44321"
       x1="366.68536"
       gradientTransform="matrix(0.5573114,-0.5573114,0.5573114,0.5573114,-100.32562,463.05361)"
       gradientUnits="userSpaceOnUse"
       id="linearGradient5010"
       xlink:href="#linearGradient4685"
       inkscape:collect="always" />
    <linearGradient
       y2="393.41516"
       x2="366.68536"
       y1="264.44321"
       x1="366.68536"
       gradientTransform="matrix(0,-0.7881573,0.7881573,0,-7.13887,822.01606)"
       gradientUnits="userSpaceOnUse"
       id="linearGradient5007"
       xlink:href="#linearGradient4685"
       inkscape:collect="always" />
    <linearGradient
       y2="460.89813"
       x2="353.04831"
       y1="693.75806"
       x1="353.04831"
       gradientTransform="matrix(8.9611767e-3,-1.1707638,1.1707638,-8.9611767e-3,-257.04223,949.77151)"
       gradientUnits="userSpaceOnUse"
       id="linearGradient5005"
       xlink:href="#linearGradient3795"
       inkscape:collect="always" />
    <linearGradient
       y2="736.78564"
       x2="362.64478"
       y1="242.21985"
       x1="362.64478"
       gradientTransform="matrix(0,-0.7881573,0.7881573,0,-7.13887,821.5111)"
       gradientUnits="userSpaceOnUse"
       id="linearGradient5003"
       xlink:href="#linearGradient3795"
       inkscape:collect="always" />
    <linearGradient
       gradientUnits="userSpaceOnUse"
       y2="104.83686"
       x2="-452.85715"
       y1="11.647896"
       x1="-452.85715"
       id="linearGradient4996"
       xlink:href="#linearGradient3698"
       inkscape:collect="always" />
    <linearGradient
       y2="4.98491"
       x2="-471.14285"
       y1="365.21933"
       x1="-471.14285"
       gradientTransform="translate(14,-1.7382813e-5)"
       gradientUnits="userSpaceOnUse"
       id="linearGradient4988"
       xlink:href="#linearGradient3795"
       inkscape:collect="always" />
    <linearGradient
       y2="1038.5764"
       x2="-469.71429"
       y1="686.42859"
       x1="-469.71429"
       gradientTransform="translate(14,-1.7382813e-5)"
       gradientUnits="userSpaceOnUse"
       id="linearGradient4977"
       xlink:href="#linearGradient3795"
       inkscape:collect="always" />
    <linearGradient
       gradientTransform="matrix(0,-0.7881573,0.7881573,0,-7.13887,821.5111)"
       y2="736.78564"
       x2="362.64478"
       y1="242.21985"
       x1="362.64478"
       gradientUnits="userSpaceOnUse"
       id="linearGradient4842"
       xlink:href="#linearGradient3795"
       inkscape:collect="always" />
    <linearGradient
       y2="460.89813"
       x2="353.04831"
       y1="693.75806"
       x1="353.04831"
       gradientTransform="matrix(8.9611767e-3,-1.1707638,1.1707638,-8.9611767e-3,-257.04223,949.77151)"
       gradientUnits="userSpaceOnUse"
       id="linearGradient4839"
       xlink:href="#linearGradient3795"
       inkscape:collect="always" />
    <linearGradient
       gradientTransform="matrix(0,-0.7881573,0.7881573,0,-7.13887,822.01606)"
       y2="393.41516"
       x2="366.68536"
       y1="264.44321"
       x1="366.68536"
       gradientUnits="userSpaceOnUse"
       id="linearGradient4836"
       xlink:href="#linearGradient4685"
       inkscape:collect="always" />
    <linearGradient
       y2="1038.5764"
       x2="-469.71429"
       y1="686.42859"
       x1="-469.71429"
       gradientTransform="matrix(1,0,0,-1,14,1052.3622)"
       gradientUnits="userSpaceOnUse"
       id="linearGradient4789"
       xlink:href="#linearGradient3795"
       inkscape:collect="always" />
    <linearGradient
       gradientTransform="matrix(1,0,0,-1,0,1052.3622)"
       y2="182.0267"
       x2="-361.34244"
       y1="182.0267"
       x1="-547.66443"
       gradientUnits="userSpaceOnUse"
       id="linearGradient4760"
       xlink:href="#linearGradient3795"
       inkscape:collect="always" />
    <linearGradient
       gradientUnits="userSpaceOnUse"
       y2="98.00071"
       x2="-455.5788"
       y1="8.8746033"
       x1="-455.5788"
       id="linearGradient4758"
       xlink:href="#linearGradient3698"
       inkscape:collect="always" />
    <linearGradient
       y2="589.9176"
       x2="360"
       y1="692.36218"
       x1="360"
       gradientUnits="userSpaceOnUse"
       id="linearGradient4062"
       xlink:href="#linearGradient3698"
       inkscape:collect="always" />
    <linearGradient
       y2="582.3291"
       x2="363.65491"
       y1="670.23621"
       x1="363.65491"
       gradientTransform="matrix(1,0,0,-1,0,1052.3622)"
       gradientUnits="userSpaceOnUse"
       id="linearGradient4060"
       xlink:href="#linearGradient3698"
       inkscape:collect="always" />
    <linearGradient
       y2="452.21143"
       x2="362.85715"
       y1="700.93359"
       x1="362.85715"
       gradientUnits="userSpaceOnUse"
       id="linearGradient4058"
       xlink:href="#linearGradient3795"
       inkscape:collect="always" />
    <linearGradient
       gradientUnits="userSpaceOnUse"
       y2="589.9176"
       x2="360"
       y1="692.36218"
       x1="360"
       id="linearGradient4048"
       xlink:href="#linearGradient3698"
       inkscape:collect="always" />
    <linearGradient
       y2="452.21143"
       x2="362.85715"
       y1="700.93359"
       x1="362.85715"
       gradientTransform="matrix(1,0,0,-1,23.53126,1052.3622)"
       gradientUnits="userSpaceOnUse"
       id="linearGradient4013"
       xlink:href="#linearGradient3795"
       inkscape:collect="always" />
    <linearGradient
       gradientTransform="translate(15.53126,7.2999999e-6)"
       y2="452.21143"
       x2="362.85715"
       y1="700.93359"
       x1="362.85715"
       gradientUnits="userSpaceOnUse"
       id="linearGradient4000"
       xlink:href="#linearGradient3795"
       inkscape:collect="always" />
    <linearGradient
       gradientTransform="matrix(1,0,0,-1,0,1052.3622)"
       y2="452.21143"
       x2="362.85715"
       y1="700.93359"
       x1="362.85715"
       gradientUnits="userSpaceOnUse"
       id="linearGradient3943"
       xlink:href="#linearGradient3795"
       inkscape:collect="always" />
    <linearGradient
       gradientTransform="translate(6,0)"
       y2="452.21143"
       x2="362.85715"
       y1="700.93359"
       x1="362.85715"
       gradientUnits="userSpaceOnUse"
       id="linearGradient3941"
       xlink:href="#linearGradient3795"
       inkscape:collect="always" />
    <linearGradient
       gradientUnits="userSpaceOnUse"
       y2="452.21143"
       x2="362.85715"
       y1="700.93359"
       x1="362.85715"
       id="linearGradient3880"
       xlink:href="#linearGradient3795"
       inkscape:collect="always" />
    <linearGradient
       y2="582.3291"
       x2="363.65491"
       y1="670.23621"
       x1="363.65491"
       gradientTransform="matrix(1,0,0,-1,0,1052.3622)"
       gradientUnits="userSpaceOnUse"
       id="linearGradient3876"
       xlink:href="#linearGradient3698"
       inkscape:collect="always" />
    <linearGradient
       id="linearGradient3698">
      <stop
         id="stop3700"
         offset="0"
         style="stop-color:#ffffff;stop-opacity:1;" />
      <stop
         id="stop3702"
         offset="1"
         style="stop-color:#ffe800;stop-opacity:0;" />
    </linearGradient>
    <linearGradient
       id="linearGradient3724">
      <stop
         style="stop-color:#ffffff;stop-opacity:1;"
         offset="0"
         id="stop3726" />
      <stop
         style="stop-color:#d9d9d9;stop-opacity:1;"
         offset="1"
         id="stop3728" />
    </linearGradient>
    <linearGradient
       id="linearGradient3795">
      <stop
         id="stop3797"
         offset="0"
         style="stop-color:#ffe800;stop-opacity:1;" />
      <stop
         id="stop3799"
         offset="1"
         style="stop-color:#dfb300;stop-opacity:1;" />
    </linearGradient>
    <linearGradient
       id="linearGradient4022">
      <stop
         id="stop4024"
         offset="0"
         style="stop-color:#dfb300;stop-opacity:1;" />
      <stop
         id="stop4026"
         offset="1"
         style="stop-color:#dfb300;stop-opacity:0;" />
    </linearGradient>
    <linearGradient
       id="linearGradient4032">
      <stop
         style="stop-color:#dfb300;stop-opacity:1;"
         offset="0"
         id="stop4034" />
      <stop
         id="stop3374"
         offset="0.5"
         style="stop-color:#dfb300;stop-opacity:1;" />
      <stop
         style="stop-color:#dfb300;stop-opacity:1;"
         offset="1"
         id="stop3376" />
    </linearGradient>
    <linearGradient
       id="linearGradient4552">
      <stop
         id="stop4558"
         offset="0"
         style="stop-color:#b08e00;stop-opacity:1;" />
      <stop
         style="stop-color:#dfb300;stop-opacity:1;"
         offset="1"
         id="stop4556" />
    </linearGradient>
    <linearGradient
       id="linearGradient4685"
       inkscape:collect="always">
      <stop
         id="stop4687"
         offset="0"
         style="stop-color:#ffffff;stop-opacity:1;" />
      <stop
         id="stop4689"
         offset="1"
         style="stop-color:#ffffff;stop-opacity:0;" />
    </linearGradient>
    <linearGradient
       id="linearGradient5304"
       inkscape:collect="always">
      <stop
         id="stop5306"
         offset="0"
         style="stop-color:#ffffff;stop-opacity:1;" />
      <stop
         id="stop5308"
         offset="1"
         style="stop-color:#ffffff;stop-opacity:0;" />
    </linearGradient>
    <linearGradient
       id="linearGradient3634">
      <stop
         style="stop-color:#ffe800;stop-opacity:0.39215687;"
         offset="0"
         id="stop3636" />
      <stop
         style="stop-color:#dfb300;stop-opacity:0.39215687;"
         offset="1"
         id="stop3638" />
    </linearGradient>
  </defs>
  <sodipodi:namedview
     id="base"
     pagecolor="#ffffff"
     bordercolor="#666666"
     borderopacity="1.0"
     inkscape:pageopacity="0.0"
     inkscape:pageshadow="2"
     inkscape:zoom="1.0643267"
     inkscape:cx="71.185009"
     inkscape:cy="216.28793"
     inkscape:document-units="px"
     inkscape:current-layer="layer1"
     showgrid="false"
     inkscape:window-width="1544"
     inkscape:window-height="1010"
     inkscape:window-x="0"
     inkscape:window-y="0"
     inkscape:window-maximized="0" />
  <metadata
     id="metadata7">
    <rdf:RDF>
      <cc:Work
         rdf:about="">
        <dc:format>image/svg+xml</dc:format>
        <dc:type
           rdf:resource="http://purl.org/dc/dcmitype/StillImage" />
        <dc:title></dc:title>
      </cc:Work>
    </rdf:RDF>
  </metadata>
  <g
     inkscape:label="Layer 1"
     inkscape:groupmode="layer"
     id="layer1"
     transform="translate(0,-540.36218)">
    <g
       transform="matrix(0.72820918,0,0,0.8535291,-21.50826,507.51048)"
       id="layer1-8"
       inkscape:label="Layer 1">
      <path
         inkscape:export-ydpi="90"
         inkscape:export-xdpi="90"
         inkscape:export-filename="/home/barret/Desktop/My Documents/Art/icons/key.png"
         id="path6625"
         d="m 227.19747,177.7338 c -46.64631,46.64626 -46.67059,122.39164 -0.0243,169.03793 30.91342,30.91339 74.59251,41.32503 114.11822,31.2646 l 22.29366,22.29366 39.67638,4.8623 4.91092,39.725 39.67639,4.86231 4.88661,39.70069 39.725,4.91092 4.86231,39.67639 70.52768,-5.9077 5.66458,-0.46191 1.06972,-12.20438 5.61596,-63.76909 -22.07486,-22.07486 -22.02622,-22.02622 -22.05055,-22.05055 -22.02622,-22.02622 -22.05054,-22.05054 -22.05054,-22.05054 -22.05054,-22.05054 c 12.54903,-40.93507 2.65736,-87.24661 -29.70867,-119.61262 -46.64633,-46.64645 -122.31866,-46.69502 -168.96498,-0.0486 z m 24.21426,24.31151 c 21.40715,-21.40715 52.06671,-25.53561 68.43689,-9.16543 16.37022,16.37021 12.26604,47.05404 -9.14112,68.4612 -21.40719,21.40715 -52.06671,25.48701 -68.4369,9.11682 -16.37015,-16.37015 -12.26603,-47.00543 9.14113,-68.41259 z"
         style="color:#000000;fill:url(#linearGradient3601);fill-opacity:1;fill-rule:nonzero;stroke:none;stroke-width:40;marker:none;visibility:visible;display:inline;overflow:visible;enable-background:accumulate"
         inkscape:connector-curvature="0" />
      <path
         inkscape:export-ydpi="90"
         inkscape:export-xdpi="90"
         inkscape:export-filename="/home/barret/Desktop/My Documents/Art/icons/key.png"
         id="path6871"
         d="m 388.4298,339.03296 c -1.67951,1.67956 -2.87876,3.58839 -3.69021,5.59057 -0.73509,1.81384 -1.28163,3.9215 -1.28163,6.31976 0,2.39806 0.52432,4.52783 1.25953,6.34187 0.77382,1.90933 2.01065,3.911 3.69021,5.59056 l 163.1207,163.1207 3.27037,3.27037 4.61829,-0.37565 5.67896,-0.46404 8.39689,-0.70711 0.7513,-8.39689 1.06066,-12.19759 0.39775,-4.64039 -3.29247,-3.29247 -160.15969,-160.15969 c -1.67957,-1.67954 -3.6813,-2.91642 -5.59056,-3.69021 -1.81396,-0.73515 -3.9216,-1.28163 -6.31977,-1.28163 -2.39793,3e-5 -4.50565,0.5464 -6.31977,1.28163 -1.90918,0.77379 -3.91091,2.01056 -5.59056,3.69021 z"
         style="color:#000000;fill:url(#linearGradient3632);fill-opacity:1;fill-rule:nonzero;stroke:none;stroke-width:20;marker:none;visibility:visible;display:inline;overflow:visible;enable-background:accumulate"
         inkscape:connector-curvature="0" />
      <path
         inkscape:export-ydpi="90"
         inkscape:export-xdpi="90"
         inkscape:export-filename="/home/barret/Desktop/My Documents/Art/icons/key.png"
         sodipodi:nodetypes="cssccsccsccsccsccsccsccsccsccsccsccsccsccsccsccsccsccsccsccsccsccsccsccsccsccsccsccsccsccsccsccsccsccsccscsc"
         id="path2365"
         d="m 239.43817,192.85126 c -2.29072,2.40995 -4.43073,4.91661 -6.43025,7.49092 2.50589,-3.2279 5.25695,-6.31576 8.22011,-9.28078 -0.60053,0.60053 -1.20807,1.1778 -1.78986,1.78986 z m 3.62392,-3.57972 c 4.28433,-4.07249 8.83508,-7.67409 13.61181,-10.82758 -4.76749,3.14878 -9.33517,6.76251 -13.61181,10.82758 z m -11.62307,13.16986 c -0.92914,1.2639 -1.81265,2.52573 -2.67374,3.8228 0.85723,-1.29139 1.74912,-2.5643 2.67374,-3.8228 z m -2.80633,4.04377 c -0.89445,1.355 -1.76497,2.74401 -2.58536,4.13215 0.82572,-1.39839 1.68459,-2.76739 2.58536,-4.13215 z m -2.58536,4.13215 c -1.65781,2.80512 -3.15239,5.65086 -4.5078,8.57367 1.35116,-2.91372 2.85638,-5.7769 4.5078,-8.57367 z m -4.5078,8.57367 c -1.35179,2.91499 -2.5508,5.89652 -3.60183,8.90513 1.05091,-3.00728 2.25066,-5.99141 3.60183,-8.90513 z m -3.60183,8.90513 c -1.05036,3.0067 -1.96792,6.04927 -2.71794,9.12609 0.75065,-3.07744 1.66704,-6.11881 2.71794,-9.12609 z m -2.71794,9.12609 c -0.30834,1.26492 -0.5821,2.52672 -0.83969,3.8007 0.25803,-1.27533 0.53083,-2.53445 0.83969,-3.8007 z m 43.53126,-60.10407 c 1.38195,-0.86348 2.78434,-1.68642 4.19845,-2.47488 -1.4141,0.78818 -2.8165,1.61163 -4.19845,2.47488 z m 8.48528,-4.72878 c 1.44335,-0.71342 2.88348,-1.37245 4.35313,-2.01083 -1.46063,0.63464 -2.91849,1.30201 -4.35313,2.01083 z m 17.89865,-6.76171 c 1.52253,-0.41052 3.05921,-0.76854 4.59619,-1.10485 -1.53709,0.33634 -3.07357,0.69426 -4.59619,1.10485 z m 4.61829,-1.12695 c 1.53729,-0.33595 3.09154,-0.62217 4.64039,-0.88388 -1.54901,0.26172 -3.10297,0.54789 -4.64039,0.88388 z m -75.52785,77.33981 c -0.1518,0.78473 -0.28724,1.57685 -0.41984,2.36438 0.13136,-0.77868 0.26971,-1.58844 0.41984,-2.36438 z m -0.41984,2.36438 c -0.13039,0.77442 -0.26384,1.54344 -0.37565,2.3202 0.11259,-0.78106 0.24428,-1.54151 0.37565,-2.3202 z m -0.68501,4.66249 c -0.0939,0.78514 -0.16803,1.57759 -0.24307,2.36439 0.0751,-0.78471 0.14924,-1.58132 0.24307,-2.36439 z m -0.44194,4.72878 c -0.0556,0.78171 -0.0955,1.55967 -0.13259,2.34229 0.0375,-0.78691 0.0763,-1.5563 0.13259,-2.34229 z m 93.47068,-91.26097 c 1.18413,-0.0565 2.37246,-0.0965 3.55763,-0.11049 -1.19246,0.0141 -2.36622,0.0533 -3.55763,0.11049 z m 4.70668,-0.11049 c 0.78762,-2.2e-4 1.57694,0.004 2.36438,0.0221 -0.79501,-0.019 -1.56919,-0.0223 -2.36438,-0.0221 z M 212.6786,267.73829 c 0.11325,1.57705 0.25312,3.15761 0.44194,4.72878 -0.18766,-1.56614 -0.32935,-3.1568 -0.44194,-4.72878 z M 322.6558,162.93181 c 1.56612,0.18723 3.12723,0.40059 4.68458,0.66291 -1.55736,-0.26272 -3.11844,-0.47525 -4.68458,-0.66291 z M 213.80555,277.12955 c 0.13271,0.78533 0.26804,1.58185 0.41984,2.36439 -0.15012,-0.77594 -0.28848,-1.58571 -0.41984,-2.36439 z m 0.41984,2.36439 c 0.14906,0.76841 0.31867,1.53274 0.48614,2.2981 -0.1689,-0.77283 -0.33601,-1.52215 -0.48614,-2.2981 z m 1.61309,6.91639 c 0.20848,0.77176 0.41326,1.55271 0.64081,2.3202 -0.22519,-0.76133 -0.43438,-1.55467 -0.64081,-2.3202 z m 1.34792,4.5741 c 0.24385,0.75564 0.48875,1.50317 0.7513,2.2539 -0.26272,-0.75182 -0.50734,-1.49715 -0.7513,-2.2539 z m 0.7513,2.2539 c 0.2505,0.71624 0.50588,1.43197 0.7734,2.14342 -0.26421,-0.70369 -0.52585,-1.43503 -0.7734,-2.14342 z m 1.70148,4.48571 c 0.30119,0.74235 0.60804,1.47342 0.92808,2.20971 -0.31903,-0.73483 -0.62782,-1.46885 -0.92808,-2.20971 z m 0.92808,2.20971 c 0.32028,0.73687 0.63311,1.47927 0.97227,2.20971 -0.3378,-0.72843 -0.65325,-1.47488 -0.97227,-2.20971 z m 0.97227,2.20971 c 0.33846,0.72897 0.7034,1.44332 1.06066,2.16551 -0.35656,-0.72167 -0.72287,-1.43708 -1.06066,-2.16551 z m 2.14342,4.30893 c 0.37955,0.72233 0.77241,1.42874 1.17114,2.14342 -0.39409,-0.70706 -0.79582,-1.42888 -1.17114,-2.14342 z M 359.24858,174.90843 c 1.12131,0.63295 2.23568,1.28623 3.33666,1.96664 -1.10104,-0.6802 -2.2153,-1.33386 -3.33666,-1.96664 z M 227.32896,312.79425 c 0.38169,0.61053 0.77482,1.23023 1.17115,1.83406 -0.40094,-0.61098 -0.78521,-1.21623 -1.17115,-1.83406 z m 1.5689,2.45278 c 0.41743,0.62577 0.84834,1.238 1.28163,1.85616 -0.43335,-0.61822 -0.86414,-1.23033 -1.28163,-1.85616 z m 2.71794,3.86699 c 0.95488,1.29194 1.95697,2.56845 2.98311,3.8228 -1.02387,-1.25134 -2.03011,-2.53408 -2.98311,-3.8228 z M 371.07052,182.75289 c 1.30075,1.00711 2.60666,2.03445 3.86699,3.11569 -1.26794,-1.08839 -2.55812,-2.1024 -3.86699,-3.11569 z m -126.15227,151.0336 c 38.63696,34.9051 98.35561,33.74077 135.58773,-3.49134 37.23211,-37.23212 38.39644,-96.95077 3.49134,-135.58773 31.41528,35.32329 -20.49904,44.2755 -57.6734,81.44986 -37.17439,37.17433 -46.08413,89.04622 -81.40567,57.62921 z"
         style="color:#000000;fill:url(#linearGradient3609);fill-opacity:1;fill-rule:nonzero;stroke:none;stroke-width:30;marker:none;visibility:visible;display:inline;overflow:visible;enable-background:accumulate"
         inkscape:connector-curvature="0" />
      <path
         inkscape:export-ydpi="90"
         inkscape:export-xdpi="90"
         inkscape:export-filename="/home/barret/Desktop/My Documents/Art/icons/key.png"
         id="path6632"
         d="m 239.43813,192.8702 c -36.6515,38.55908 -36.02864,99.58366 1.80518,137.41748 38.43434,38.43435 46.6618,-15.69214 85.09617,-54.12646 38.43435,-38.43435 92.58902,-46.69002 54.15467,-85.12438 -38.43434,-38.43436 -100.8165,-38.40613 -139.25085,0.0282 -0.60053,0.60053 -1.22338,1.1931 -1.80517,1.80516 z m 11.98738,9.1668 c 21.40716,-21.40715 52.0565,-25.50878 68.42668,-9.1386 16.37021,16.3702 12.26856,47.01953 -9.13859,68.42669 -21.40719,21.40714 -52.05651,25.50878 -68.42669,9.13859 -16.37016,-16.37015 -12.26856,-47.01951 9.1386,-68.42668 z"
         style="color:#000000;fill:url(#linearGradient3594);fill-opacity:1;fill-rule:nonzero;stroke:none;stroke-width:40;marker:none;visibility:visible;display:inline;overflow:visible;enable-background:accumulate"
         inkscape:connector-curvature="0" />
    </g>
    <text
       xml:space="preserve"
       style="font-size:29.34836197px;font-style:normal;font-variant:normal;font-weight:bold;font-stretch:normal;line-height:125%;letter-spacing:0px;word-spacing:0px;fill:#000000;fill-opacity:1;stroke:none;font-family:American Typewriter;-inkscape-font-specification:American Typewriter Bold"
       x="43.778301"
       y="848.99121"
       id="text3089"
       sodipodi:linespacing="125%"
       inkscape:export-filename="/Users/lrees/Desktop/wsgigzip.png"
       inkscape:export-xdpi="9.3313932"
       inkscape:export-ydpi="9.3313932"
       transform="scale(0.96931611,1.0316552)"><tspan
         sodipodi:role="line"
         id="tspan3091"
         x="43.778301"
         y="848.99121"
         style="font-size:163.04644775px;font-weight:bold;fill:#000000;-inkscape-font-specification:American Typewriter Bold">WSGi</tspan></text>
    <flowRoot
       xml:space="preserve"
       id="flowRoot3558"
       style="fill:black;stroke:none;stroke-opacity:1;stroke-width:1px;stroke-linejoin:miter;stroke-linecap:butt;fill-opacity:1;font-family:American Typewriter;font-style:normal;font-weight:normal;font-size:36px;line-height:125%;letter-spacing:0px;word-spacing:0px;-inkscape-font-specification:American Typewriter;font-stretch:normal;font-variant:normal"><flowRegion
         id="flowRegion3560"><rect
           id="rect3562"
           width="12.214295"
           height="56.373669"
           x="439.71463"
           y="529.85168" /></flowRegion><flowPara
         id="flowPara3564"></flowPara></flowRoot>  </g>
</svg>
